<svg id="Layer_1" enable-background="new 0 0 512 512" height="512" viewBox="0 0 512 512" width="512" xmlns="http://www.w3.org/2000/svg"><g><path d="m256 206.733c-3.838 0-7.677-1.464-10.605-4.392l-124.999-124.966c-5.866-5.865-5.854-15.382.017-21.232 11.7-11.662 27.123-19.092 43.429-20.922 9.76-1.096 19.457-.163 28.451 2.648.384-.737 18.38-37.869 63.707-37.869 45.292 0 63.34 37.164 63.708 37.868 8.995-2.811 18.688-3.744 28.451-2.648 16.306 1.83 31.729 9.261 43.429 20.922 5.875 5.855 5.878 15.372.017 21.232l-125 124.967c-2.928 2.929-6.767 4.392-10.605 4.392z" fill="#ffe6cf"/><path d="m256 206.733v-206.733c45.292 0 63.34 37.164 63.708 37.868 8.995-2.811 18.688-3.744 28.451-2.648 16.306 1.83 31.729 9.261 43.429 20.922 5.875 5.855 5.878 15.372.017 21.232l-125 124.967c-2.928 2.929-6.767 4.392-10.605 4.392z" fill="#ffd7bc"/><path d="m464.866 512h-417.732c-8.284 0-15-6.716-15-15v-96.4c0-123.66 100.053-223.867 223.866-223.867 123.661 0 223.866 100.055 223.866 223.867v96.4c0 8.284-6.716 15-15 15z" fill="#fff5e1"/><path d="m464.866 512c8.284 0 15-6.716 15-15v-96.4c0-123.812-100.205-223.867-223.866-223.867v335.267z" fill="#ffe6cf"/><path d="m256 415.6c-34.849 0-63.199-28.352-63.199-63.2s28.351-63.2 63.199-63.2 63.2 28.351 63.2 63.2-28.351 63.2-63.2 63.2z" fill="#b96446"/><path d="m256 415.6v-126.4c34.849 0 63.2 28.351 63.2 63.2s-28.351 63.2-63.2 63.2z" fill="#844632"/><path d="m207.799 463.8c-34.849 0-63.199-28.352-63.199-63.2s28.351-63.2 63.199-63.2 63.2 28.351 63.2 63.2-28.351 63.2-63.2 63.2z" fill="#42f89b"/><path d="m256 206.733c-1.222 0-2.443-.149-3.638-.448l-64.267-16.067c-8.037-2.009-12.924-10.153-10.914-18.19 2.009-8.037 10.161-12.92 18.189-10.914l60.63 15.157 60.629-15.157c8.032-2.011 16.18 2.876 18.189 10.914 2.01 8.037-2.877 16.181-10.914 18.19l-64.267 16.067c-1.194.299-2.415.448-3.637.448z" fill="#ff7c90"/><path d="m304.2 463.8c-34.849 0-63.199-28.352-63.199-63.2s28.351-63.2 63.199-63.2 63.2 28.351 63.2 63.2-28.351 63.2-63.2 63.2z" fill="#ffe566"/><path d="m256 441.412c11.602 13.681 28.899 22.388 48.2 22.388 34.849 0 63.2-28.352 63.2-63.2s-28.352-63.2-63.2-63.2c-19.301 0-36.598 8.707-48.2 22.388z" fill="#ffbf2a"/><path d="m159.6 512c-34.849 0-63.199-28.352-63.199-63.2s28.351-63.2 63.199-63.2 63.2 28.351 63.2 63.2-28.352 63.2-63.2 63.2z" fill="#ffe566"/><path d="m352.4 512c-34.849 0-63.2-28.352-63.2-63.2s28.352-63.2 63.2-63.2 63.199 28.351 63.199 63.2-28.35 63.2-63.199 63.2z" fill="#5ea6f3"/><circle cx="256" cy="448.8" fill="#ff7c90" r="63.2"/><g fill="#ef447c"><path d="m256 512v-126.4c34.849 0 63.2 28.351 63.2 63.2s-28.351 63.2-63.2 63.2z"/><path d="m256 206.733v-30.462l60.629-15.157c8.032-2.011 16.18 2.876 18.189 10.914 2.01 8.037-2.877 16.181-10.914 18.19l-64.267 16.067c-1.194.299-2.415.448-3.637.448z"/><path d="m309.66 266.606-53.66-53.659-53.66 53.66c-5.857 5.858-15.355 5.858-21.213 0s-5.858-15.355 0-21.213l64.267-64.267c5.857-5.858 15.355-5.858 21.213 0l64.267 64.267c5.858 5.858 5.858 15.355 0 21.213-5.859 5.859-15.358 5.856-21.214-.001z"/></g><path d="m309.66 266.606c5.856 5.857 15.355 5.859 21.213 0 5.858-5.858 5.858-15.355 0-21.213l-64.267-64.267c-2.929-2.929-6.768-4.394-10.606-4.394v36.214z" fill="#d60065"/></g></svg>